<svg width="790" height="130" viewBox="0 0 790 130" fill="none" xmlns="http://www.w3.org/2000/svg">
<path d="M80.3999 97.8186H71.7599V65.8506H36.6239V97.8186H27.9839V29.2746H36.6239V58.2666H71.7599V29.2746H80.3999V97.8186ZM99.1401 97.8186V29.2746H150.596V97.8186H142.052V36.8586H107.78V97.8186H99.1401ZM169.359 97.8186V29.2746H220.815V97.8186H212.271V36.8586H177.999V97.8186H169.359ZM293.891 35.8986C290.243 35.8986 286.947 36.5386 284.003 37.8186C281.059 39.0346 278.563 40.8586 276.515 43.2906C274.467 45.6586 272.899 48.5706 271.811 52.0266C270.723 55.4186 270.179 59.2586 270.179 63.5466C270.179 69.1786 271.043 74.0746 272.771 78.2346C274.563 82.3946 277.187 85.5946 280.643 87.8346C284.163 90.0746 288.547 91.1946 293.795 91.1946C296.803 91.1946 299.651 90.9386 302.339 90.4266C305.027 89.9146 307.651 89.2746 310.211 88.5066V95.9946C307.651 96.9546 304.995 97.6586 302.243 98.1066C299.555 98.5546 296.323 98.7786 292.547 98.7786C285.571 98.7786 279.747 97.3386 275.075 94.4586C270.403 91.5786 266.883 87.4826 264.515 82.1706C262.211 76.8586 261.059 70.6186 261.059 63.4506C261.059 58.2666 261.763 53.5306 263.171 49.2426C264.643 44.9546 266.755 41.2426 269.507 38.1066C272.323 34.9706 275.779 32.5706 279.875 30.9066C283.971 29.1786 288.675 28.3146 293.987 28.3146C297.507 28.3146 300.899 28.6666 304.163 29.3706C307.427 30.0746 310.339 31.0666 312.899 32.3466L309.443 39.6426C307.331 38.6826 304.963 37.8186 302.339 37.0506C299.779 36.2826 296.963 35.8986 293.891 35.8986ZM325.171 97.8186V29.2746H376.627V97.8186H368.083V36.8586H333.811V97.8186H325.171ZM433.694 97.8186H395.39V29.2746H433.694V36.8586H404.03V58.2666H431.966V65.7546H404.03V90.2346H433.694V97.8186ZM508.542 90.2346V115.867H500.286V97.8186H448.734V29.2746H457.374V90.1386H491.646V29.2746H500.19V90.2346H508.542ZM562.898 97.8186L554.642 76.6026H527.474L519.314 97.8186H510.578L537.362 28.9866H545.138L571.826 97.8186H562.898ZM544.37 48.1866C544.178 47.6746 543.858 46.7466 543.41 45.4026C542.962 44.0586 542.514 42.6826 542.066 41.2746C541.682 39.8026 541.362 38.6826 541.106 37.9146C540.786 39.1946 540.434 40.5066 540.05 41.8506C539.73 43.1306 539.378 44.3146 538.994 45.4026C538.674 46.4906 538.386 47.4186 538.13 48.1866L530.354 68.9226H552.05L544.37 48.1866ZM600.787 29.2746C606.483 29.2746 611.251 29.8186 615.091 30.9066C618.995 31.9946 621.907 33.7866 623.827 36.2826C625.811 38.7786 626.803 42.1066 626.803 46.2666C626.803 48.9546 626.291 51.3546 625.267 53.4666C624.307 55.5146 622.835 57.2426 620.851 58.6506C618.931 59.9946 616.563 60.9226 613.747 61.4346V61.9146C616.627 62.3626 619.219 63.1946 621.523 64.4106C623.891 65.6266 625.747 67.3546 627.091 69.5946C628.435 71.8346 629.107 74.7466 629.107 78.3306C629.107 82.4906 628.147 86.0426 626.227 88.9866C624.307 91.8666 621.555 94.0746 617.971 95.6106C614.451 97.0826 610.227 97.8186 605.299 97.8186H581.203V29.2746H600.787ZM602.515 58.4586C608.403 58.4586 612.435 57.5306 614.611 55.6746C616.787 53.7546 617.875 50.9386 617.875 47.2266C617.875 43.4506 616.531 40.7626 613.843 39.1626C611.219 37.4986 606.995 36.6666 601.171 36.6666H589.843V58.4586H602.515ZM589.843 65.6586V90.5226H603.667C609.747 90.5226 613.971 89.3386 616.339 86.9706C618.707 84.6026 619.891 81.4986 619.891 77.6586C619.891 75.2266 619.347 73.1146 618.259 71.3226C617.235 69.5306 615.475 68.1546 612.979 67.1946C610.547 66.1706 607.219 65.6586 602.995 65.6586H589.843ZM643.736 29.2746H651.8V66.9066C651.8 68.5066 651.768 70.2666 651.704 72.1866C651.704 74.0426 651.672 75.8986 651.608 77.7546C651.544 79.6106 651.448 81.2746 651.32 82.7466C651.256 84.1546 651.192 85.2426 651.128 86.0106H651.512L689.24 29.2746H698.84V97.8186H690.776V60.5706C690.776 58.8426 690.808 56.9866 690.872 55.0026C690.936 52.9546 691 51.0026 691.064 49.1466C691.192 47.2266 691.288 45.5306 691.352 44.0586C691.416 42.5866 691.48 41.4986 691.544 40.7946H691.16L653.336 97.8186H643.736V29.2746ZM760.336 97.8186L752.08 76.6026H724.912L716.752 97.8186H708.016L734.8 28.9866H742.576L769.264 97.8186H760.336ZM741.808 48.1866C741.616 47.6746 741.296 46.7466 740.848 45.4026C740.4 44.0586 739.952 42.6826 739.504 41.2746C739.12 39.8026 738.8 38.6826 738.544 37.9146C738.224 39.1946 737.872 40.5066 737.488 41.8506C737.168 43.1306 736.816 44.3146 736.432 45.4026C736.112 46.4906 735.824 47.4186 735.568 48.1866L727.792 68.9226H749.488L741.808 48.1866Z" fill="#0075C0"/>
<path d="M4 4L786 4" stroke="#0075C0" stroke-width="7" stroke-linecap="round"/>
<path d="M4 125.819H786" stroke="#0075C0" stroke-width="7" stroke-linecap="round"/>
</svg>
