<svg width="512" height="512" viewBox="0 0 512 512" fill="none" xmlns="http://www.w3.org/2000/svg">
<path opacity="0.982" fill-rule="evenodd" clip-rule="evenodd" d="M291.5 77.5001C299.499 76.8332 306.832 78.6665 313.5 83.0001C365.333 134.833 417.167 186.667 469 238.5C476.333 249.833 476.333 261.167 469 272.5C417.167 324.333 365.333 376.167 313.5 428C298.437 436.937 285.271 434.771 274 421.5C268.47 412.01 268.137 402.343 273 392.5C308.805 355.694 344.972 319.194 381.5 283C275.167 282.667 168.833 282.333 62.4996 282C45.7193 275.947 39.2193 264.114 42.9996 246.5C46.3599 237.138 52.8599 231.305 62.4996 229C168.833 228.667 275.167 228.333 381.5 228C344.972 191.806 308.805 155.306 273 118.5C265.227 98.2646 271.393 84.5979 291.5 77.5001Z" fill="#11CAE6"/>
</svg>
