<svg width="683" height="683" viewBox="0 0 683 683" fill="none" xmlns="http://www.w3.org/2000/svg">
<g clip-path="url(#clip0_1409_176)">
<path d="M315.999 0.933168C266.533 5.59983 228.933 16.1332 187.866 36.7998C133.733 63.8665 83.5992 109.866 50.6659 162.666C26.7992 200.8 9.46589 250 2.39922 299.333C0.132552 315.066 0.132552 367.6 2.39922 383.333C7.99922 422.666 18.3992 457.067 34.6659 490C52.9326 527.333 70.9326 552.4 100.533 582.133C129.999 611.467 155.466 629.733 191.333 647.333C216.399 659.6 232.533 665.6 257.999 672C324.666 688.8 391.599 685.6 456.666 662.533C476.666 655.467 511.066 638.133 528.666 626.4C603.333 576.533 655.599 500.8 674.666 414.667C679.066 394.667 681.333 375.866 682.266 352.666C684.266 295.866 672.533 241.733 647.199 190.8C630.666 157.466 612.133 131.2 586.133 104.4C557.599 74.7998 528.799 53.8665 491.333 35.3332C451.866 15.8665 415.066 5.33317 371.333 1.33317C357.733 0.133168 326.933 -0.133499 315.999 0.933168ZM388.666 46.5332C472.399 60.6665 543.066 106.266 590.133 176.8C613.999 212.4 629.599 253.2 636.933 298C640.133 318.4 640.133 364.266 636.933 384.666C622.533 473.733 573.733 547.6 497.999 595.333C465.599 615.733 426.399 630.133 384.666 636.933C364.133 640.133 318.399 640.133 297.999 636.8C210.399 622.533 138.266 576 90.3992 502.667C67.9992 468.4 52.9326 428.4 45.7326 384.666C42.5326 364.266 42.5326 318.4 45.7326 298C56.5326 231.733 84.5326 176.4 130.533 130.667C181.466 79.8665 245.466 49.9998 317.333 43.4665C331.733 42.1332 373.066 43.9998 388.666 46.5332Z" fill="white"/>
<path d="M320 239.067V350L387.067 417.067L454 484L469.067 468.933L484 454L423.333 393.333L362.667 332.667V230.4V128H341.333H320V239.067Z" fill="white"/>
</g>
<defs>
<clipPath id="clip0_1409_176">
<rect width="682.667" height="682.667" fill="white"/>
</clipPath>
</defs>
</svg>
