<svg width="683" height="683" viewBox="0 0 683 683" fill="none" xmlns="http://www.w3.org/2000/svg">
<g clip-path="url(#clip0_1414_304)">
<path d="M48.1336 82.7999C25.2003 87.3332 5.73359 107.067 1.33359 130.533C-0.533073 140.4 -0.533073 542.267 1.33359 552.133C5.86693 576.133 25.2003 595.467 49.2003 600C59.0669 601.867 623.6 601.867 633.467 600C657.467 595.467 676.8 576.133 681.334 552.133C683.2 542.267 683.2 140.4 681.334 130.533C676.8 106.533 657.467 87.1999 633.467 82.6665C624.534 81.0665 56.8003 81.0665 48.1336 82.7999ZM478.4 256.933L342.8 392.533L323.734 374.267C313.2 364.133 251.6 303.2 186.667 238.667L68.6669 121.467L341.334 121.333H614L478.4 256.933ZM141.867 250.4L232.267 340.4L136.134 436.533L40.0003 532.667V341.467V150.4L45.7336 155.467C48.8003 158.133 92.0003 200.933 141.867 250.4ZM642.667 341.6V532.667L547.067 437.067L451.334 341.333L546.667 246C599.067 193.6 642.134 150.667 642.267 150.667C642.534 150.667 642.667 236.667 642.667 341.6ZM295.334 402.8C313.734 421.2 330.934 437.333 333.6 438.8C339.6 441.867 345.467 442 351.067 439.2C353.467 438 370.534 422 389.067 403.6L422.667 370L518.4 465.733L614 561.333H341.334H68.6669L164.667 465.333C217.467 412.533 260.934 369.333 261.334 369.333C261.734 369.333 277.067 384.4 295.334 402.8Z" fill="black"/>
</g>
<defs>
<clipPath id="clip0_1414_304">
<rect width="682.667" height="682.667" fill="white"/>
</clipPath>
</defs>
</svg>
