<svg width="683" height="683" viewBox="0 0 683 683" fill="none" xmlns="http://www.w3.org/2000/svg">
<g clip-path="url(#clip0_1406_128)">
<path d="M158.133 93.4666L154.667 96.1333V121.467C154.667 153.733 153.467 152 176.667 152H193.333V173.333V194.667H110.667H27.8667L24.6667 198C21.3333 201.2 21.3333 201.467 21.3333 225.733C21.3333 249.6 21.4667 250.267 24.4 253.067C27.0667 255.6 29.0667 256 37.7333 256H48V393.333V530.667H37.2C22.5333 530.667 16.6667 532.667 9.33333 540C1.6 547.6 0 553.2 0 571.2C0 584.533 0.266667 585.6 3.33333 588.667L6.53333 592H341.333H676.133L679.333 588.667C682.533 585.6 682.667 584.667 682.667 570.4C682.667 557.333 682.267 554.4 679.467 548.533C675.867 540.8 668.8 534.4 661.467 532.133C658.667 531.333 651.467 530.667 645.467 530.667H634.667V393.333V256H645.067C654.267 256 655.867 255.6 658.4 252.933C661.2 250 661.333 248.667 661.333 225.467C661.333 201.467 661.333 201.2 658 198L654.8 194.667H572H489.333V173.333V152H506C529.2 152 528 153.733 528 121.467V96.1333L524.533 93.4666L520.933 90.6666H341.333H161.733L158.133 93.4666ZM509.333 121.333V133.333H341.333H173.333V121.333V109.333H341.333H509.333V121.333ZM470.667 341.333V530.667L431.733 530.4L392.667 530L392 486.267C391.333 444.8 391.2 442.4 388.8 440.533C384.933 437.733 297.733 437.733 293.867 440.533C291.467 442.4 291.333 444.8 290.667 486.267L290 530L251.067 530.4L212 530.667V341.333V152H341.333H470.667V341.333ZM193.333 225.333V237.333H116.667H40V225.333V213.333H116.667H193.333V225.333ZM642.667 225.333V237.333H566H489.333V225.333V213.333H566H642.667V225.333ZM193.067 392.933L192.667 530L129.733 530.4L66.6667 530.667V393.333V256H130H193.333L193.067 392.933ZM616 393.333V530.667L553.067 530.4L490 530L489.6 392.933L489.333 256H552.667H616V393.333ZM373.333 494V530.667H341.333H309.333V494V457.333H341.333H373.333V494ZM660.133 553.2C663.6 556.667 664 558 664 565.2V573.333H341.333H18.6667V565.2C18.6667 558 19.0667 556.667 22.5333 553.2L26.4 549.333H341.333H656.267L660.133 553.2Z" fill="white"/>
<path d="M240.667 177.6C239.2 178.4 237.6 179.733 237.067 180.533C236.533 181.333 236 193.867 236 208.267V234.533L239.467 237.2C242.933 239.867 244.533 240 282 240C319.467 240 321.067 239.867 324.533 237.2L328 234.533V208V181.467L324.533 178.8C321.067 176.133 319.467 176 282.133 176C255.733 176.133 242.533 176.533 240.667 177.6ZM309.333 208V221.333H282H254.667V208V194.667H282H309.333V208Z" fill="white"/>
<path d="M358.135 178.8L354.668 181.467V208V234.533L358.135 237.2C361.601 239.867 363.201 240 400.668 240C438.135 240 439.735 239.867 443.201 237.2L446.668 234.533V208V181.467L443.201 178.8C439.735 176.133 438.135 176 400.668 176C363.201 176 361.601 176.133 358.135 178.8ZM428.001 208V221.333H400.668H373.335V208V194.667H400.668H428.001V208Z" fill="white"/>
<path d="M238.667 266.667C236.133 269.2 236 271.067 236 295.733C236 319.733 236.267 322.4 238.4 324.4C240.533 326.4 245.6 326.667 281.733 326.667C320.933 326.667 322.8 326.533 325.333 324C327.867 321.467 328 319.6 328 295.333C328 271.067 327.867 269.2 325.333 266.667C322.8 264.133 320.933 264 282 264C243.067 264 241.2 264.133 238.667 266.667ZM309.333 295.333V308H282H254.667V295.333V282.667H282H309.333V295.333Z" fill="white"/>
<path d="M357.335 266.667C354.801 269.2 354.668 271.067 354.668 295.067C354.668 316.133 355.068 321.333 356.801 323.733C358.801 326.667 358.935 326.667 400.668 326.667C442.401 326.667 442.535 326.667 444.535 323.733C446.268 321.333 446.668 316.133 446.668 295.067C446.668 271.067 446.535 269.2 444.001 266.667C441.468 264.133 439.601 264 400.668 264C361.735 264 359.868 264.133 357.335 266.667ZM428.001 295.333V308H400.668H373.335V295.333V282.667H400.668H428.001V295.333Z" fill="white"/>
<path d="M239.6 353.333L236 356.133V382.8C236 407.6 236.133 409.467 238.667 412C241.2 414.533 243.067 414.667 281.733 414.667H322.267L325.067 411.6C327.867 408.667 328 407.333 328 382.4C328 357.733 327.867 356.267 325.2 353.867C322.533 351.467 319.6 351.333 282.8 350.933C244.133 350.533 243.067 350.667 239.6 353.333ZM309.333 382.667V396H282H254.667V382.667V369.333H282H309.333V382.667Z" fill="white"/>
<path d="M361.335 351.6C354.801 354 354.668 354.933 354.668 382.8C354.668 408.267 354.801 409.333 357.601 412C360.401 414.533 362.135 414.667 400.935 414.667C439.601 414.667 441.468 414.533 444.001 412C446.535 409.467 446.668 407.6 446.668 382.8V356.133L443.201 353.467C439.735 350.8 438.135 350.667 401.468 350.8C380.535 350.8 362.401 351.2 361.335 351.6ZM428.001 382.667V396H400.668H373.335V382.667V369.333H400.668H428.001V382.667Z" fill="white"/>
<path d="M94.0011 283.333C90.0011 287.333 89.8677 290.533 93.4677 295.2L96.1344 298.667H130.001H163.868L166.668 295.067C170.001 290.8 169.334 285.867 165.068 282.267C162.668 280.267 158.934 280 129.734 280H97.2011L94.0011 283.333Z" fill="white"/>
<path d="M94.0011 324.667C90.0011 328.667 89.8677 331.867 93.4677 336.533L96.1344 340H130.001H163.868L166.668 336.4C170.001 332.133 169.334 327.2 165.068 323.6C162.668 321.6 158.934 321.333 129.734 321.333H97.2011L94.0011 324.667Z" fill="white"/>
<path d="M96.3982 364C90.3982 366.4 89.1982 374.4 94.1316 379.2C95.8649 381.067 101.065 381.333 129.998 381.333H163.865L166.665 377.733C168.665 375.2 169.198 373.067 168.665 370.667C166.932 363.467 166.532 363.333 131.598 363.067C113.865 362.933 97.9982 363.333 96.3982 364Z" fill="white"/>
<path d="M96.4 405.333C90.5334 407.733 88.9334 415.6 93.3334 420C95.8667 422.533 97.4667 422.667 130.267 422.4L164.4 422L167.067 418.4C169.333 415.333 169.467 414.267 168.133 410.933C167.2 408.8 164.933 406.4 163.2 405.467C159.2 403.733 100.8 403.6 96.4 405.333Z" fill="white"/>
<path d="M96.5347 447.2C90.1347 450 88.668 456.667 93.3347 461.333C95.868 463.867 97.7347 464 129.735 464C148.135 464 164.001 463.467 164.801 462.933C170.935 458.933 169.468 449.2 162.401 446.8C156.135 444.533 101.735 444.933 96.5347 447.2Z" fill="white"/>
<path d="M93.3333 490.667C90 494 89.8666 498.8 93.2 502.8C95.7333 506 96 506 127.467 506.4C162.133 506.8 165.333 506.267 168.133 499.867C169.467 496.4 169.333 495.333 167.067 492.267L164.4 488.667L130.267 488.267C97.4666 488 95.8666 488.133 93.3333 490.667Z" fill="white"/>
<path d="M517.6 282.267C513.333 285.867 512.667 290.8 516 295.067L518.8 298.667H552.667H586.533L589.2 295.2C592.8 290.533 592.667 287.333 588.667 283.333L585.467 280H552.933C523.733 280 520 280.267 517.6 282.267Z" fill="white"/>
<path d="M517.6 323.6C513.333 327.2 512.667 332.133 516 336.4L518.8 340H552.667H586.533L589.2 336.533C592.8 331.867 592.667 328.667 588.667 324.667L585.467 321.333H552.933C523.733 321.333 520 321.6 517.6 323.6Z" fill="white"/>
<path d="M518.8 364.4C513.867 366.933 512.4 372.8 515.6 377.2L518.267 380.667L550.8 381.067C568.667 381.2 584.667 381.067 586.133 380.667C587.733 380.4 589.733 378.133 590.667 376C592.8 370.8 590.8 365.867 585.867 364C580.667 362 522.8 362.267 518.8 364.4Z" fill="white"/>
<path d="M519.068 405.6C517.468 406.4 515.468 408.8 514.534 410.933C513.201 414.267 513.334 415.333 515.601 418.4L518.268 422L550.801 422.4C568.668 422.533 584.668 422.4 586.134 422C587.734 421.733 589.734 419.467 590.668 417.333C592.801 412.133 590.801 407.2 585.868 405.333C581.201 403.467 522.801 403.733 519.068 405.6Z" fill="white"/>
<path d="M519.867 446.8C515.067 448.533 512.534 454.667 514.801 458.933C515.601 460.533 517.067 462.4 517.867 462.933C518.667 463.467 534.534 464 553.067 464C584.934 464 586.801 463.867 589.334 461.333C594.267 456.4 592.134 449.2 585.201 446.8C579.867 444.933 524.801 444.933 519.867 446.8Z" fill="white"/>
<path d="M516.132 491.467C512.932 495.6 512.799 496.133 514.799 500.533C517.466 506.267 521.199 506.8 555.199 506.4C586.666 506 586.932 506 589.466 502.8C592.799 498.8 592.666 494 589.332 490.667C586.799 488.133 584.932 488 552.799 488H518.799L516.132 491.467Z" fill="white"/>
</g>
<defs>
<clipPath id="clip0_1406_128">
<rect width="682.667" height="682.667" fill="white"/>
</clipPath>
</defs>
</svg>
