<svg width="680" height="682" viewBox="0 0 680 682" fill="none" xmlns="http://www.w3.org/2000/svg">
<path d="M117.648 1.82662C101.114 5.42662 98.0476 7.82663 54.981 51.0266C17.3809 88.4933 14.4476 91.8266 10.0476 101.16C2.71428 116.627 0.980951 124.893 0.180951 146.76C-0.619049 168.76 1.11428 183.293 7.78095 208.627C47.9143 361.027 227.381 561.56 399.114 645.827C450.048 670.76 488.581 681.693 526.448 681.827C549.648 681.827 561.381 679.427 577.514 671.56C587.914 666.493 590.581 663.96 628.048 626.627C669.914 584.76 672.314 581.693 677.648 563.96C680.448 554.627 680.448 537.027 677.648 527.693C672.848 511.693 670.848 509.293 617.914 456.093C590.048 427.96 563.514 402.36 559.114 399.16C532.714 380.36 498.714 383.027 476.581 405.56C469.914 412.36 467.248 416.36 462.714 427.16C459.514 434.36 455.381 442.493 453.381 445.16C440.581 462.493 416.048 473.427 395.114 471.293C363.914 467.96 317.381 439.693 277.914 400.227C230.181 352.493 202.048 297.56 208.848 265.56C212.048 250.627 222.581 235.027 234.981 226.76C237.914 224.627 244.314 221.293 249.114 219.293C262.981 213.427 266.314 211.427 272.848 205.827C294.981 186.493 299.781 150.227 283.648 124.493C278.981 116.893 186.981 23.96 175.781 15.2933C166.848 8.49329 155.114 3.15996 144.581 1.29329C134.581 -0.573375 127.914 -0.440042 117.648 1.82662Z" fill="white"/>
</svg>
