<svg width="398" height="682" viewBox="0 0 398 682" fill="none" xmlns="http://www.w3.org/2000/svg">
<path d="M35.6667 1.06673C18.4667 5.20006 4.86667 19.8667 1.4 38.1334C-0.466667 48.0001 -0.466667 633.867 1.4 643.733C4.33333 658.8 14.0667 671.6 27.8 678L35.4 681.6H198.733H362.067L369.667 678C383.4 671.6 393.133 658.8 396.067 643.733C397.933 633.867 397.933 48.0001 396.067 38.1334C393.133 23.0667 383.4 10.2667 369.667 3.86673L362.067 0.266729L201.4 6.2108e-05C110.333 6.2108e-05 38.6 0.400062 35.6667 1.06673ZM252.067 35.6001C253.133 37.4667 253.133 39.0667 252.067 40.9334C250.733 43.4667 249.267 43.6001 198.733 43.6001C148.2 43.6001 146.733 43.4667 145.4 40.9334C144.333 39.0667 144.333 37.4667 145.4 35.6001C146.733 33.0667 148.2 32.9334 198.733 32.9334C249.267 32.9334 250.733 33.0667 252.067 35.6001ZM365.4 334.933V596.933H198.733H32.0667V334.933V72.9334H198.733H365.4V334.933ZM206.333 614.4C210.867 616.133 217 621.733 219.533 626.533C223.8 634.667 221 647.067 213.533 653.333C198.333 666.133 176.067 655.6 176.067 635.6C176.067 620.4 192.333 609.067 206.333 614.4Z" fill="white"/>
</svg>
