<svg 
    width="164" 
    height="164" 
    viewBox="0 0 64 64" 
    fill="none" 
    xmlns="http://www.w3.org/2000/svg"
>
    <path 
        d="M0.5 0H0V0.5H0.5V0Z" 
        fill="white"
    />
    <path 
        d="M13.4484 32.54C15.3834 43.09 24.0784 51.04 34.5134 51.04C46.3734 51.04 55.3134 40.75 55.9884 28.1C56.4884 18.68 51.2634 9.34998 39.7034 4.15998C34.629 1.90061 28.9661 1.31908 23.5384 2.49998C34.6534 -0.510016 44.3034 2.50998 50.8384 7.82998C54.9384 11.06 58.8984 15.495 60.4984 20.03C61.6239 23.2243 62.2594 26.5705 62.3834 29.955C62.3834 47.155 48.9484 61.105 31.7534 61.105C24.3745 61.1079 17.2343 58.4899 11.6061 53.7179C5.97785 48.9459 2.22739 42.3301 1.02344 35.05C1.30844 27.14 10.9384 25.935 13.4384 32.54H13.4484Z" 
        fill="#1F4E5C"
    />
    <animateTransform 
        attributeName="transform" 
        type="rotate" 
        from="0" 
        to="360" 
        dur="1000ms" 
        repeatCount="indefinite"
    ></animateTransform>
</svg>