<svg width="683" height="683" viewBox="0 0 683 683" fill="none" xmlns="http://www.w3.org/2000/svg">
<path d="M317.334 0.799997C314.801 1.06666 306.934 2 300.001 2.66666C256.001 7.46666 207.334 24 168.001 47.4667C118.001 77.3333 77.3341 118 47.4674 168C24.1341 206.933 8.66745 252.267 2.40078 300C0.267448 316.4 0.267448 366.267 2.40078 382.667C13.3341 465.733 49.8674 536 111.734 593.467C145.867 625.333 188.401 650.133 234.667 665.333C271.201 677.467 300.134 681.867 341.334 681.867C371.734 681.867 385.201 680.667 412.001 675.2C503.867 656.4 585.867 597.467 635.201 514.667C658.534 475.733 674.001 430.4 680.267 382.667C682.401 366.267 682.401 316.4 680.267 300C674.001 252.267 658.534 206.933 635.201 168C605.334 118 564.667 77.3333 514.667 47.4667C476.134 24.4 430.134 8.66666 384.001 2.66666C372.267 1.06666 325.601 -0.133336 317.334 0.799997ZM368.667 41.3333C446.401 48.5333 521.467 87.6 570.934 146.667C635.867 224.133 657.867 324.933 631.201 422.267C620.934 459.733 602.801 495.6 578.134 526.933C573.601 532.667 569.734 537.333 569.334 537.333C568.934 537.333 566.801 531.6 564.667 524.533C553.334 486.667 526.934 446 496.401 419.2C477.201 402.4 450.934 386.267 427.334 376.667L422.001 374.533L426.667 371.067C435.067 364.8 455.467 343.333 460.401 335.6C479.334 306.133 487.334 274.267 484.001 241.733C479.067 192.933 450.534 150.933 407.334 128.4C317.467 81.7333 208.934 140.533 198.667 241.733C196.001 268 201.067 295.6 212.801 318.933C222.267 337.733 238.001 357.2 253.467 368.933C257.067 371.6 260.001 374.267 260.001 374.667C260.001 375.067 255.601 377.067 250.267 379.2C214.267 393.733 178.267 422 153.067 455.333C138.534 474.667 124.667 501.867 117.867 524.667C115.867 531.6 113.734 537.333 113.334 537.333C112.267 537.333 97.0674 517.6 89.4674 506.267C81.0674 493.733 66.2674 464.933 60.2674 449.6C49.8674 423.2 43.3341 392.667 41.0674 359.6C34.1341 264 77.2008 166.933 152.934 106.533C214.134 57.7333 291.734 34.2667 368.667 41.3333ZM369.334 156C403.601 165.733 430.401 192.533 440.801 227.333C445.467 243.2 445.734 265.867 441.601 281.467C429.201 327.733 388.934 358.667 341.334 358.667C293.734 358.667 253.467 327.733 241.067 281.467C236.934 265.867 237.201 243.2 241.867 227.333C253.601 187.867 284.001 161.067 326.667 152.8C334.401 151.333 359.601 153.2 369.334 156ZM368.667 402.8C410.001 408.133 446.534 426.533 478.134 458C501.867 481.733 516.801 505.733 526.401 536C529.867 546.8 535.334 572.133 534.267 572.667C534.134 572.8 530.134 575.867 525.334 579.6C484.267 611.6 434.801 632.133 379.334 640.133C363.867 642.4 318.801 642.4 303.334 640.133C247.867 632.133 198.401 611.6 157.334 579.6C152.534 575.867 148.534 572.8 148.401 572.667C148.134 572.533 148.934 567.467 150.001 561.467C162.134 492.533 211.467 434.8 278.134 411.6C307.601 401.333 335.601 398.533 368.667 402.8Z" fill="white"/>
</svg>
