<svg width="290" height="290" viewBox="0 0 290 290" fill="none" xmlns="http://www.w3.org/2000/svg">
<path d="M130 1.09997C112.5 2.89997 90.6997 9.79997 75.6997 18.4C37.0997 40.4 11.2997 76.8 3.29972 120.2C0.699724 134.3 0.999724 159.4 3.89972 173C13.3997 218 41.0997 254.2 81.4997 274.4C93.8997 280.7 103.8 284.1 118.4 287.2C132.9 290.3 158.2 290.2 173 287.1C193.4 282.8 210 275.8 226.9 264.5C257.7 243.8 278.9 211.9 287.2 173.7C290.4 159 290.4 131 287.2 116.3C273.5 53.2 222.8 7.49997 159.6 1.09997C147.3 -0.100029 142.3 -0.100029 130 1.09997ZM169 15.6C179.5 17.4 193 21.9 203.5 27C228.5 39.1 251.3 61.7 263.8 86.6C279.4 117.7 281.6 155.3 269.9 188.7C256.6 226.4 227.4 255.6 189.7 268.9C174.4 274.3 162.4 276.3 145.5 276.3C133.9 276.3 128.1 275.8 120 274.1C109.5 271.9 94.3997 266.7 85.8997 262.4C69.4997 254.2 48.7997 236.4 38.0997 221.3C27.1997 206 18.6997 185.9 15.4997 167.6C13.5997 156.3 13.5997 134.9 15.4997 123.4C23.2997 78.2 54.4997 39.5 96.6997 23C120.6 13.6 143.7 11.3 169 15.6Z" fill="black"/>
<path d="M137.5 46.9C119.3 55.3 121.8 81 141.3 86.2C157.4 90.4 172.2 72.8 165.1 57.5C160.2 46.9 147.8 42.1 137.5 46.9Z" fill="black"/>
<path d="M105.402 67.8C90.9016 75.5 80.4016 85.3 71.7016 99.1C62.4016 114 57.0016 135.5 58.7016 151.2L59.3016 156.9L62.1016 155.4C63.7016 154.6 66.6016 153.6 68.7016 153.2L72.5016 152.4L73.1016 141C73.9016 127.8 76.0016 120 81.9016 109.4C88.5016 97.6 100.202 86.3 111.402 80.8C115.602 78.8 116.102 78.2 115.602 76C115.302 74.6 114.702 71.4 114.402 68.7C114.002 66.1 113.402 64 113.102 64C112.802 64 109.302 65.7 105.402 67.8Z" fill="black"/>
<path d="M177.201 71.7C176.501 75.5 176.301 78.6 176.801 78.8C177.301 78.9 181.101 81.3 185.201 84C205.601 97.4 217.801 119.5 218.301 143.8L218.501 153.1L222.501 154.1C224.701 154.7 227.701 155.8 229.201 156.6L231.801 158L232.501 150.6C233.901 135.4 229.001 114.9 220.301 100.1C215.501 92 204.501 80.2 196.601 74.6C190.701 70.4 180.901 65 179.301 65C178.801 65 177.901 68 177.201 71.7Z" fill="black"/>
<path d="M125.7 96.4C118 99.6 113.6 102.6 107.3 109.1C97.2996 119.2 92.1996 133.8 93.2996 149.1C93.7996 156.9 93.8996 157.1 98.7996 162.5C103.5 167.6 108 176.5 108 180.6C108 182.4 112.6 186.5 118.9 190.3C133.3 198.9 154.1 199.5 169.5 191.8C175.8 188.6 183 182.8 183 180.8C183 176.3 187.5 167.5 192.2 162.6L197.2 157.5L197.7 148.5C198.4 137.4 196.9 130.2 192.4 121.2C186.9 110 177.4 101.4 165.5 96.6C160.5 94.5 159.5 94.4 156.2 95.6C151.3 97.3 140.5 97.3 135.5 95.5C133.3 94.7 131.5 94 131.5 94C131.5 94 128.9 95.1 125.7 96.4Z" fill="black"/>
<path d="M67.5 165.9C60.1 169.2 55 177.3 55 185.5C55 188.9 58.2 196.5 60.8 199.3C64 202.9 70.2 205.3 76.1 205.3C94 205.4 103.4 184.7 91.7 171.3C87.7 166.8 81.8 164 76 164C73.5 164 69.7 164.9 67.5 165.9Z" fill="black"/>
<path d="M206.5 166.4C197.9 170.1 193.4 177.9 194.2 187.5C195.7 205.8 219 212.7 230.9 198.3C239.3 188.1 235.7 172.9 223.3 166.6C219.5 164.7 210.7 164.6 206.5 166.4Z" fill="black"/>
<path d="M98.4994 207.4C96.8994 209.2 94.5994 211.2 93.4994 211.8C91.5994 213 91.5994 213.1 94.4994 215.5C96.1994 216.9 100.899 219.8 104.999 222C131.899 236 165.399 235 191.099 219.4C197.099 215.8 200.099 213 198.099 213C197.499 213 194.999 211 192.599 208.6L188.199 204.3L183.399 207.3C160.799 221.4 130.899 221.4 107.899 207.4C104.799 205.5 102.099 204.1 101.899 204.1C101.699 204.2 100.199 205.7 98.4994 207.4Z" fill="black"/>
</svg>
