<?xml version="1.0" standalone="no"?>
<!DOCTYPE svg PUBLIC "-//W3C//DTD SVG 20010904//EN"
 "http://www.w3.org/TR/2001/REC-SVG-20010904/DTD/svg10.dtd">
<svg version="1.0" xmlns="http://www.w3.org/2000/svg"
 width="1000.000000pt" height="227.000000pt" viewBox="0 0 1000.000000 227.000000"
 preserveAspectRatio="xMidYMid meet">

<g transform="translate(0.000000,227.000000) scale(0.100000,-0.100000)"
fill="#000000" stroke="none">
<path d="M10 2235 l0 -25 4995 0 4995 0 0 25 0 25 -4995 0 -4995 0 0 -25z"/>
<path d="M9441 2156 c-31 -37 75 -126 150 -126 74 0 188 90 159 125 -11 13
-17 11 -47 -16 -76 -66 -147 -64 -224 8 -22 21 -28 22 -38 9z"/>
<path d="M5135 1991 c-51 -13 -111 -49 -139 -82 -64 -75 -87 -153 -87 -287 0
-137 26 -218 91 -283 62 -62 129 -83 240 -77 175 10 266 117 278 325 10 197
-52 338 -172 388 -45 19 -166 28 -211 16z m203 -93 c27 -19 49 -45 69 -85 26
-54 28 -66 28 -183 0 -117 -2 -129 -28 -183 -38 -76 -86 -109 -168 -115 -84
-6 -125 4 -168 44 -72 65 -105 201 -81 333 28 152 107 224 241 218 52 -2 75
-8 107 -29z"/>
<path d="M256 1980 c-15 -5 -37 -17 -48 -27 -46 -42 -48 -55 -48 -378 l0 -305
35 0 35 0 0 285 c0 227 3 293 14 320 8 19 16 36 18 37 2 1 84 4 183 7 l180 6
0 30 0 30 -170 2 c-93 1 -183 -2 -199 -7z"/>
<path d="M732 1978 c-9 -9 -12 -103 -12 -360 l0 -348 40 0 40 0 0 150 0 150
138 0 c112 0 144 4 177 19 75 35 115 102 115 194 0 96 -56 171 -149 197 -53
15 -334 13 -349 -2z m331 -72 c18 -7 43 -26 57 -41 21 -23 25 -36 25 -91 0
-58 -3 -66 -31 -94 -39 -39 -82 -49 -211 -50 l-103 0 0 145 0 145 115 0 c76 0
127 -5 148 -14z"/>
<path d="M1283 1978 c35 -86 212 -486 220 -495 5 -7 18 -13 28 -13 23 0 23 2
-2 -57 -34 -79 -52 -93 -126 -93 l-63 0 0 -29 c0 -28 3 -30 45 -37 52 -7 111
1 142 22 13 8 32 32 43 55 20 38 247 605 257 642 4 14 -1 17 -31 17 -43 0 -30
23 -140 -254 -44 -114 -85 -207 -90 -207 -5 0 -52 102 -105 228 l-97 228 -43
3 c-33 3 -42 0 -38 -10z"/>
<path d="M1948 1979 c-17 -9 -18 -37 -18 -359 l0 -350 40 0 40 0 0 325 0 325
200 0 200 0 0 -325 0 -325 35 0 35 0 0 348 c0 257 -3 351 -12 360 -15 15 -494
17 -520 1z"/>
<path d="M2668 1979 c-17 -9 -18 -37 -18 -360 l0 -350 38 3 37 3 3 323 2 322
195 0 195 0 2 -322 3 -323 38 -3 37 -3 0 350 c0 336 -1 351 -19 361 -26 13
-490 13 -513 -1z"/>
<path d="M3562 1977 c-9 -11 -262 -690 -262 -703 0 -2 20 -4 44 -4 l45 0 27
85 28 85 161 0 160 0 30 -85 29 -85 43 0 c24 0 43 2 43 5 0 6 -229 641 -246
683 -11 28 -17 32 -52 32 -22 0 -44 -6 -50 -13z m109 -254 c34 -104 64 -194
67 -200 3 -10 -28 -13 -133 -13 -105 0 -136 3 -133 13 3 6 33 96 67 200 35
103 64 187 66 187 2 0 31 -84 66 -187z"/>
<path d="M4290 1630 l0 -360 35 0 35 0 0 175 0 175 100 0 c104 0 153 -12 179
-44 8 -10 33 -81 56 -159 l40 -142 38 -3 c24 -2 37 1 37 9 0 22 -72 273 -86
301 -13 26 -53 62 -77 71 -7 3 -1 13 16 27 37 30 50 58 81 175 15 55 29 108
32 118 4 14 -1 17 -33 17 l-39 0 -28 -107 c-32 -121 -54 -164 -91 -181 -14 -7
-71 -12 -125 -12 l-100 0 0 150 0 150 -35 0 -35 0 0 -360z"/>
<path d="M5670 1971 c-6 -13 -10 -145 -10 -360 l0 -341 40 0 40 0 2 288 3 287
100 -230 c55 -126 108 -238 117 -247 10 -10 32 -18 48 -18 40 0 46 11 161 281
l94 220 3 -290 2 -291 40 0 40 0 0 348 c0 257 -3 351 -12 360 -13 13 -66 16
-85 4 -7 -4 -63 -129 -126 -276 -62 -147 -116 -269 -120 -269 -5 -1 -55 108
-111 243 -137 326 -128 310 -176 310 -29 0 -42 -5 -50 -19z"/>
<path d="M6527 1972 c-15 -17 -17 -56 -17 -360 l0 -342 40 0 40 0 0 325 0 325
200 0 200 0 0 -325 0 -325 40 0 40 0 0 344 c0 300 -2 347 -16 360 -13 14 -51
16 -263 16 -227 0 -249 -2 -264 -18z"/>
<path d="M7421 1971 c-14 -26 -251 -679 -251 -692 0 -6 18 -9 41 -7 l41 3 30
83 30 82 161 -2 160 -3 27 -80 27 -80 41 -3 c29 -2 42 1 42 10 0 18 -240 681
-252 695 -17 21 -85 16 -97 -6z m117 -259 c34 -103 63 -190 62 -194 0 -10
-260 -10 -260 -1 0 15 125 383 130 383 3 0 33 -84 68 -188z"/>
<path d="M7870 1630 l0 -360 40 0 40 0 2 173 3 172 198 3 197 2 0 -175 0 -175
40 0 40 0 0 360 0 360 -40 0 -40 0 0 -155 0 -155 -200 0 -200 0 0 155 0 155
-40 0 -40 0 0 -360z"/>
<path d="M8590 1649 c0 -215 4 -347 10 -360 8 -14 21 -19 50 -19 l38 0 164
259 c90 143 177 281 193 308 l30 48 3 -307 2 -308 40 0 40 0 0 341 c0 215 -4
347 -10 360 -11 19 -63 26 -86 11 -10 -6 -147 -219 -333 -517 l-56 -90 -3 308
-2 307 -40 0 -40 0 0 -341z"/>
<path d="M9320 1642 c0 -257 3 -351 12 -360 7 -7 27 -12 44 -12 25 0 39 7 57
33 23 30 302 474 343 545 10 17 22 32 26 32 4 0 8 -137 8 -305 l0 -305 35 0
35 0 -2 358 -3 357 -45 0 -45 0 -182 -290 c-100 -159 -186 -297 -192 -305 -7
-10 -10 86 -10 293 l-1 307 -40 0 -40 0 0 -348z"/>
<path d="M473 1090 c-148 -59 -233 -211 -233 -417 0 -210 58 -328 192 -389 56
-25 74 -28 168 -29 82 0 121 5 177 23 40 12 75 27 78 33 9 14 -14 69 -29 69
-6 0 -39 -9 -71 -21 -76 -27 -202 -29 -260 -4 -79 32 -133 103 -154 203 -31
149 6 318 90 401 47 47 87 64 164 68 64 4 95 -1 192 -32 17 -6 25 -1 38 24 9
18 13 36 10 40 -13 22 -106 43 -205 47 -89 4 -113 1 -157 -16z"/>
<path d="M5884 1090 c-172 -68 -258 -291 -210 -543 19 -97 54 -164 111 -215
63 -56 129 -77 235 -77 117 1 180 24 246 89 61 61 90 132 107 254 29 222 -49
421 -192 485 -68 31 -227 35 -297 7z m235 -72 c49 -15 105 -71 130 -129 43
-98 43 -310 0 -409 -44 -102 -146 -159 -264 -147 -140 14 -216 112 -231 295
-24 289 136 459 365 390z"/>
<path d="M1126 1084 c-14 -14 -16 -63 -16 -415 l0 -399 45 0 45 0 0 375 0 375
230 0 230 0 0 -375 0 -375 50 0 50 0 0 388 c0 292 -3 393 -13 412 l-13 25
-296 3 c-259 2 -298 0 -312 -14z"/>
<path d="M2160 1077 c-30 -16 -51 -37 -67 -68 -24 -44 -24 -46 -21 -341 3
-281 4 -298 24 -324 50 -68 53 -69 305 -72 l230 -3 -3 38 -3 38 -215 6 c-118
3 -216 6 -217 7 -1 1 -9 15 -18 32 -11 21 -15 62 -15 154 l0 126 208 2 207 3
0 35 0 35 -207 3 -208 2 0 100 c0 101 10 143 39 157 9 4 106 10 216 13 l200 5
3 38 3 37 -209 0 c-199 0 -211 -1 -252 -23z"/>
<path d="M2890 704 c0 -253 4 -402 10 -415 10 -18 24 -19 314 -19 l303 0 7
-37 c3 -21 6 -66 6 -100 l0 -63 35 0 c19 0 35 1 36 3 5 25 16 243 12 253 -3 8
-15 14 -27 14 -46 0 -46 -4 -48 386 l-3 369 -45 0 -45 0 -3 -377 -2 -378 -230
0 -230 0 0 380 0 380 -45 0 -45 0 0 -396z"/>
<path d="M3887 1082 c-15 -17 -17 -60 -17 -415 l0 -397 45 0 45 0 0 375 0 375
235 0 235 0 0 -375 0 -375 45 0 45 0 0 393 c0 339 -2 396 -16 415 -15 22 -17
22 -308 22 -271 0 -294 -1 -309 -18z"/>
<path d="M4842 1088 c-9 -9 -12 -115 -12 -415 l0 -403 45 0 45 0 0 170 0 170
143 0 c159 0 216 11 274 55 50 39 83 114 83 193 0 106 -42 174 -135 218 -47
22 -61 24 -240 24 -135 0 -194 -3 -203 -12z m398 -90 c65 -34 85 -66 85 -143
0 -69 -15 -99 -69 -139 -24 -19 -44 -21 -182 -24 l-154 -3 0 165 0 166 138 0
c123 0 142 -2 182 -22z"/>
<path d="M6807 1085 c-20 -19 -21 -26 -57 -310 -34 -262 -49 -331 -86 -387
-17 -27 -33 -39 -60 -44 -19 -3 -38 -13 -41 -20 -3 -7 -1 -66 4 -131 l8 -118
35 0 c33 0 35 2 37 35 2 19 6 63 9 98 l6 62 311 -2 312 -3 2 -45 c2 -25 5 -69
9 -97 5 -52 6 -53 39 -53 l33 0 7 126 c4 69 4 129 -1 134 -5 5 -22 10 -39 12
l-30 3 -5 368 c-4 312 -7 369 -20 377 -8 5 -115 10 -237 10 -183 0 -224 -3
-236 -15z m403 -400 l0 -335 -231 0 c-216 0 -231 1 -224 18 32 72 48 149 75
353 16 129 32 249 35 267 l6 32 169 0 170 0 0 -335z"/>
<path d="M7641 918 c44 -101 103 -236 131 -300 44 -104 53 -118 74 -118 30 0
30 -15 0 -82 -35 -80 -55 -93 -135 -92 -69 1 -81 -5 -81 -43 0 -28 27 -37 111
-36 76 0 122 22 151 71 10 16 81 188 158 383 77 195 145 364 150 377 9 21 7
22 -38 22 l-47 0 -23 -58 c-12 -31 -59 -151 -104 -267 -45 -116 -84 -214 -88
-218 -4 -5 -20 22 -36 60 -15 37 -67 160 -115 273 l-87 205 -51 3 -50 3 80
-183z"/>
<path d="M8440 685 l0 -415 45 0 45 0 0 200 0 200 121 0 c180 0 203 -18 249
-185 12 -44 30 -110 41 -147 l20 -68 44 0 c25 0 45 3 45 8 0 4 -22 85 -49 180
-42 149 -53 178 -82 208 -18 19 -39 34 -45 34 -27 0 -24 21 6 46 42 36 54 62
90 200 17 65 34 127 36 137 5 14 -2 17 -39 17 l-44 0 -33 -126 c-54 -202 -78
-224 -252 -224 l-108 0 0 175 0 175 -45 0 -45 0 0 -415z"/>
<path d="M9230 1060 l0 -40 130 0 130 0 0 -375 0 -375 45 0 45 0 0 375 0 375
135 0 135 0 0 40 0 40 -310 0 -310 0 0 -40z"/>
<path d="M10 25 l0 -25 4995 0 4995 0 0 25 0 25 -4995 0 -4995 0 0 -25z"/>
</g>
</svg>
