<svg width="1000" height="227" viewBox="0 0 1000 227" fill="none" xmlns="http://www.w3.org/2000/svg">
<path d="M1 3.5V6H500.5H1000V3.5V1H500.5H1V3.5Z" fill="white"/>
<path d="M944.1 11.4C941 15.1 951.6 24 959.1 24C966.5 24 977.9 15 975 11.5C973.9 10.2 973.3 10.4 970.3 13.1C962.7 19.7 955.6 19.5 947.9 12.3C945.7 10.2 945.1 10.1 944.1 11.4Z" fill="white"/>
<path d="M513.498 27.9C508.398 29.2 502.398 32.8 499.598 36.1C493.198 43.6 490.898 51.4 490.898 64.8C490.898 78.5 493.498 86.6 499.998 93.1C506.198 99.3 512.898 101.4 523.998 100.8C541.498 99.8 550.598 89.1 551.798 68.3C552.798 48.6 546.598 34.5 534.598 29.5C530.098 27.6 517.998 26.7 513.498 27.9ZM533.798 37.2C536.498 39.1 538.698 41.7 540.698 45.7C543.298 51.1 543.498 52.3 543.498 64C543.498 75.7 543.298 76.9 540.698 82.3C536.898 89.9 532.098 93.2 523.898 93.8C515.498 94.4 511.398 93.4 507.098 89.4C499.898 82.9 496.598 69.3 498.998 56.1C501.798 40.9 509.698 33.7 523.098 34.3C528.298 34.5 530.598 35.1 533.798 37.2Z" fill="white"/>
<path d="M25.6 29C24.1 29.5 21.9 30.7 20.8 31.7C16.2 35.9 16 37.2 16 69.5V100H19.5H23V71.5C23 48.8 23.3 42.2 24.4 39.5C25.2 37.6 26 35.9 26.2 35.8C26.4 35.7 34.6 35.4 44.5 35.1L62.5 34.5V31.5V28.5L45.5 28.3C36.2 28.2 27.2 28.5 25.6 29Z" fill="white"/>
<path d="M73.2 29.2C72.3 30.1 72 39.5 72 65.2V100H76H80V85V70H93.8C105 70 108.2 69.6 111.5 68.1C119 64.6 123 57.9 123 48.7C123 39.1 117.4 31.6 108.1 29C102.8 27.5 74.7 27.7 73.2 29.2ZM106.3 36.4C108.1 37.1 110.6 39 112 40.5C114.1 42.8 114.5 44.1 114.5 49.6C114.5 55.4 114.2 56.2 111.4 59C107.5 62.9 103.2 63.9 90.3 64H80V49.5V35H91.5C99.1 35 104.2 35.5 106.3 36.4Z" fill="white"/>
<path d="M128.3 29.2C131.8 37.8 149.5 77.8001 150.3 78.7001C150.8 79.4001 152.1 80.0001 153.1 80.0001C155.4 80.0001 155.4 79.8001 152.9 85.7001C149.5 93.6001 147.7 95.0001 140.3 95.0001H134V97.9001C134 100.7 134.3 100.9 138.5 101.6C143.7 102.3 149.6 101.5 152.7 99.4001C154 98.6001 155.9 96.2001 157 93.9001C159 90.1001 181.7 33.4 182.7 29.7C183.1 28.3 182.6 28 179.6 28C175.3 28 176.6 25.7 165.6 53.4001C161.2 64.8001 157.1 74.1001 156.6 74.1001C156.1 74.1001 151.4 63.9001 146.1 51.3001L136.4 28.5L132.1 28.2C128.8 27.9 127.9 28.2 128.3 29.2Z" fill="white"/>
<path d="M194.8 29.1C193.1 30 193 32.8 193 65V100H197H201V67.5V35H221H241V67.5V100H244.5H248V65.2C248 39.5 247.7 30.1 246.8 29.2C245.3 27.7 197.4 27.5 194.8 29.1Z" fill="white"/>
<path d="M266.8 29.1C265.1 30 265 32.8 265 65.1V100.1L268.8 99.8L272.5 99.5L272.8 67.2L273 35H292.5H312L312.2 67.2L312.5 99.5L316.3 99.8L320 100.1V65.1C320 31.5 319.9 30 318.1 29C315.5 27.7 269.1 27.7 266.8 29.1Z" fill="white"/>
<path d="M356.2 29.3C355.3 30.4 330 98.3 330 99.6C330 99.8 332 100 334.4 100H338.9L341.6 91.5L344.4 83H360.5H376.5L379.5 91.5L382.4 100H386.7C389.1 100 391 99.8 391 99.5C391 98.9 368.1 35.4 366.4 31.2C365.3 28.4 364.7 28 361.2 28C359 28 356.8 28.6 356.2 29.3ZM367.1 54.7C370.5 65.1 373.5 74.1 373.8 74.7C374.1 75.7 371 76 360.5 76C350 76 346.9 75.7 347.2 74.7C347.5 74.1 350.5 65.1 353.9 54.7C357.4 44.4 360.3 36 360.5 36C360.7 36 363.6 44.4 367.1 54.7Z" fill="white"/>
<path d="M429 64V100H432.5H436V82.5V65H446C456.4 65 461.3 66.2 463.9 69.4C464.7 70.4 467.2 77.5 469.5 85.3L473.5 99.5L477.3 99.8C479.7 100 481 99.7 481 98.9C481 96.7 473.8 71.6 472.4 68.8C471.1 66.2 467.1 62.6 464.7 61.7C464 61.4 464.6 60.4 466.3 59C470 56 471.3 53.2 474.4 41.5C475.9 36 477.3 30.7 477.6 29.7C478 28.3 477.5 28 474.3 28H470.4L467.6 38.7C464.4 50.8 462.2 55.1 458.5 56.8C457.1 57.5 451.4 58 446 58H436V43V28H432.5H429V64Z" fill="white"/>
<path d="M567 29.9C566.4 31.2 566 44.4 566 65.9V100H570H574L574.2 71.2L574.5 42.5L584.5 65.5C590 78.1 595.3 89.3 596.2 90.2C597.2 91.2 599.4 92 601 92C605 92 605.6 90.9 617.1 63.9L626.5 41.9L626.8 70.9L627 100H631H635V65.2C635 39.5 634.7 30.1 633.8 29.2C632.5 27.9 627.2 27.6 625.3 28.8C624.6 29.2 619 41.7 612.7 56.4C606.5 71.1 601.1 83.3 600.7 83.3C600.2 83.4 595.2 72.5 589.6 59C575.9 26.4 576.8 28 572 28C569.1 28 567.8 28.5 567 29.9Z" fill="white"/>
<path d="M652.7 29.8C651.2 31.5 651 35.4 651 65.8V100H655H659V67.5V35H679H699V67.5V100H703H707V65.6C707 35.6 706.8 30.9 705.4 29.6C704.1 28.2 700.3 28 679.1 28C656.4 28 654.2 28.2 652.7 29.8Z" fill="white"/>
<path d="M742.1 29.9C740.7 32.5 717 97.8 717 99.1C717 99.7 718.8 100 721.1 99.8L725.2 99.5L728.2 91.2L731.2 83L747.3 83.2L763.3 83.5L766 91.5L768.7 99.5L772.8 99.8C775.7 100 777 99.7 777 98.8C777 97 753 30.7 751.8 29.3C750.1 27.2 743.3 27.7 742.1 29.9ZM753.8 55.8C757.2 66.1 760.1 74.8 760 75.2C760 76.2 734 76.2 734 75.3C734 73.8 746.5 37 747 37C747.3 37 750.3 45.4 753.8 55.8Z" fill="white"/>
<path d="M787 64V100H791H795L795.2 82.7L795.5 65.5L815.3 65.2L835 65V82.5V100H839H843V64V28H839H835V43.5V59H815H795V43.5V28H791H787V64Z" fill="white"/>
<path d="M859 62.1C859 83.6 859.4 96.8 860 98.1C860.8 99.5 862.1 100 865 100H868.8L885.2 74.1C894.2 59.8 902.9 46 904.5 43.3L907.5 38.5L907.8 69.2L908 100H912H916V65.9C916 44.4 915.6 31.2 915 29.9C913.9 28 908.7 27.3 906.4 28.8C905.4 29.4 891.7 50.7 873.1 80.5L867.5 89.5L867.2 58.7L867 28H863H859V62.1Z" fill="white"/>
<path d="M932 62.8C932 88.5 932.3 97.9 933.2 98.8C933.9 99.5 935.9 100 937.6 100C940.1 100 941.5 99.3 943.3 96.7C945.6 93.7 973.5 49.3 977.6 42.2C978.6 40.5 979.8 39 980.2 39C980.6 39 981 52.7 981 69.5V100H984.5H988L987.8 64.2L987.5 28.5H983H978.5L960.3 57.5C950.3 73.4 941.7 87.2 941.1 88C940.4 89 940.1 79.4 940.1 58.7L940 28H936H932V62.8Z" fill="white"/>
<path d="M47.3 118C32.5 123.9 24 139.1 24 159.7C24 180.7 29.8 192.5 43.2 198.6C48.8 201.1 50.6 201.4 60 201.5C68.2 201.5 72.1 201 77.7 199.2C81.7 198 85.2 196.5 85.5 195.9C86.4 194.5 84.1 189 82.6 189C82 189 78.7 189.9 75.5 191.1C67.9 193.8 55.3 194 49.5 191.5C41.6 188.3 36.2 181.2 34.1 171.2C31 156.3 34.7 139.4 43.1 131.1C47.8 126.4 51.8 124.7 59.5 124.3C65.9 123.9 69 124.4 78.7 127.5C80.4 128.1 81.2 127.6 82.5 125.1C83.4 123.3 83.8 121.5 83.5 121.1C82.2 118.9 72.9 116.8 63 116.4C54.1 116 51.7 116.3 47.3 118Z" fill="white"/>
<path d="M588.401 118C571.201 124.8 562.601 147.1 567.401 172.3C569.301 182 572.801 188.7 578.501 193.8C584.801 199.4 591.401 201.5 602.001 201.5C613.701 201.4 620.001 199.1 626.601 192.6C632.701 186.5 635.601 179.4 637.301 167.2C640.201 145 632.401 125.1 618.101 118.7C611.301 115.6 595.401 115.2 588.401 118ZM611.901 125.2C616.801 126.7 622.401 132.3 624.901 138.1C629.201 147.9 629.201 169.1 624.901 179C620.501 189.2 610.301 194.9 598.501 193.7C584.501 192.3 576.901 182.5 575.401 164.2C573.001 135.3 589.001 118.3 611.901 125.2Z" fill="white"/>
<path d="M112.6 118.6C111.2 120 111 124.9 111 160.1V200H115.5H120V162.5V125H143H166V162.5V200H171H176V161.2C176 132 175.7 121.9 174.7 120L173.4 117.5L143.8 117.2C117.9 117 114 117.2 112.6 118.6Z" fill="white"/>
<path d="M215.999 119.3C212.999 120.9 210.899 123 209.299 126.1C206.899 130.5 206.899 130.7 207.199 160.2C207.499 188.3 207.599 190 209.599 192.6C214.599 199.4 214.899 199.5 240.099 199.8L263.099 200.1L262.799 196.3L262.499 192.5L240.999 191.9C229.199 191.6 219.399 191.3 219.299 191.2C219.199 191.1 218.399 189.7 217.499 188C216.399 185.9 215.999 181.8 215.999 172.6V160L236.799 159.8L257.499 159.5V156V152.5L236.799 152.2L215.999 152V142C215.999 131.9 216.999 127.7 219.899 126.3C220.799 125.9 230.499 125.3 241.499 125L261.499 124.5L261.799 120.7L262.099 117H241.199C221.299 117 220.099 117.1 215.999 119.3Z" fill="white"/>
<path d="M289 156.6C289 181.9 289.4 196.8 290 198.1C291 199.9 292.4 200 321.4 200H351.7L352.4 203.7C352.7 205.8 353 210.3 353 213.7V220H356.5C358.4 220 360 219.9 360.1 219.7C360.6 217.2 361.7 195.4 361.3 194.4C361 193.6 359.8 193 358.6 193C354 193 354 193.4 353.8 154.4L353.5 117.5H349H344.5L344.2 155.2L344 193H321H298V155V117H293.5H289V156.6Z" fill="white"/>
<path d="M388.7 118.8C387.2 120.5 387 124.8 387 160.3V200H391.5H396V162.5V125H419.5H443V162.5V200H447.5H452V160.7C452 126.8 451.8 121.1 450.4 119.2C448.9 117 448.7 117 419.6 117C392.5 117 390.2 117.1 388.7 118.8Z" fill="white"/>
<path d="M484.2 118.2C483.3 119.1 483 129.7 483 159.7V200H487.5H492V183V166H506.3C522.2 166 527.9 164.9 533.7 160.5C538.7 156.6 542 149.1 542 141.2C542 130.6 537.8 123.8 528.5 119.4C523.8 117.2 522.4 117 504.5 117C491 117 485.1 117.3 484.2 118.2ZM524 127.2C530.5 130.6 532.5 133.8 532.5 141.5C532.5 148.4 531 151.4 525.6 155.4C523.2 157.3 521.2 157.5 507.4 157.8L492 158.1V141.6V125H505.8C518.1 125 520 125.2 524 127.2Z" fill="white"/>
<path d="M680.701 118.5C678.701 120.4 678.601 121.1 675.001 149.5C671.601 175.7 670.101 182.6 666.401 188.2C664.701 190.9 663.101 192.1 660.401 192.6C658.501 192.9 656.601 193.9 656.301 194.6C656.001 195.3 656.201 201.2 656.701 207.7L657.501 219.5H661.001C664.301 219.5 664.501 219.3 664.701 216C664.901 214.1 665.301 209.7 665.601 206.2L666.201 200L697.301 200.2L728.501 200.5L728.701 205C728.901 207.5 729.201 211.9 729.601 214.7C730.101 219.9 730.201 220 733.501 220H736.801L737.501 207.4C737.901 200.5 737.901 194.5 737.401 194C736.901 193.5 735.201 193 733.501 192.8L730.501 192.5L730.001 155.7C729.601 124.5 729.301 118.8 728.001 118C727.201 117.5 716.501 117 704.301 117C686.001 117 681.901 117.3 680.701 118.5ZM721.001 158.5V192H697.901C676.301 192 674.801 191.9 675.501 190.2C678.701 183 680.301 175.3 683.001 154.9C684.601 142 686.201 130 686.501 128.2L687.101 125H704.001H721.001V158.5Z" fill="white"/>
<path d="M764.102 135.2C768.502 145.3 774.402 158.8 777.202 165.2C781.602 175.6 782.502 177 784.602 177C787.602 177 787.602 178.5 784.602 185.2C781.102 193.2 779.102 194.5 771.102 194.4C764.202 194.3 763.002 194.9 763.002 198.7C763.002 201.5 765.702 202.4 774.102 202.3C781.702 202.3 786.302 200.1 789.202 195.2C790.202 193.6 797.302 176.4 805.002 156.9C812.702 137.4 819.502 120.5 820.002 119.2C820.902 117.1 820.702 117 816.202 117H811.502L809.202 122.8C808.002 125.9 803.302 137.9 798.802 149.5C794.302 161.1 790.402 170.9 790.002 171.3C789.602 171.8 788.002 169.1 786.402 165.3C784.902 161.6 779.702 149.3 774.902 138L766.202 117.5L761.102 117.2L756.102 116.9L764.102 135.2Z" fill="white"/>
<path d="M844 158.5V200H848.5H853V180V160H865.1C883.1 160 885.4 161.8 890 178.5C891.2 182.9 893 189.5 894.1 193.2L896.1 200H900.5C903 200 905 199.7 905 199.2C905 198.8 902.8 190.7 900.1 181.2C895.9 166.3 894.8 163.4 891.9 160.4C890.1 158.5 888 157 887.4 157C884.7 157 885 154.9 888 152.4C892.2 148.8 893.4 146.2 897 132.4C898.7 125.9 900.4 119.7 900.6 118.7C901.1 117.3 900.4 117 896.7 117H892.3L889 129.6C883.6 149.8 881.2 152 863.8 152H853V134.5V117H848.5H844V158.5Z" fill="white"/>
<path d="M923 121V125H936H949V162.5V200H953.5H958V162.5V125H971.5H985V121V117H954H923V121Z" fill="white"/>
<path d="M1 224.5V227H500.5H1000V224.5V222H500.5H1V224.5Z" fill="white"/>
</svg>
