<svg width="303" height="294" viewBox="0 0 303 294" fill="none" xmlns="http://www.w3.org/2000/svg">
<path d="M137.761 17.8351C124.026 38.1303 115.006 55.1455 109.471 71.7507C104.756 85.8958 104.756 108.651 109.471 119.721C114.186 131.201 125.461 145.756 135.096 152.727C144.732 159.697 145.142 161.952 139.196 167.282C135.916 170.152 134.481 170.562 133.866 168.512C130.996 160.517 118.696 145.756 109.881 139.811C93.071 128.741 80.9758 126.076 46.1255 126.281C12.9151 126.281 0 127.921 0 131.816C0 138.376 25.2153 184.707 35.6704 197.212C61.0906 227.757 94.301 235.137 128.946 217.917L140.426 212.177V201.927C140.221 196.187 139.606 187.577 138.786 182.452L137.146 173.227L151.907 165.027C189.832 143.911 206.027 111.726 195.777 76.6707C191.062 59.8605 177.532 34.6453 163.387 15.7851C156.827 7.17502 151.087 -5.85346e-05 150.677 -5.85346e-05C150.472 -5.85346e-05 144.527 7.99501 137.761 17.8351ZM161.337 33.2103C184.707 67.8556 191.882 96.7609 182.452 118.286C177.532 129.971 158.467 149.651 152.522 149.651C150.472 149.651 143.091 143.706 136.121 136.531C123.206 123.411 116.851 110.086 116.851 96.5559C116.851 88.5608 121.771 71.5457 127.921 58.0155C133.866 45.3054 149.242 20.5001 151.497 20.5001C152.112 20.5001 156.622 26.2402 161.337 33.2103ZM89.7909 143.091C95.736 145.346 103.731 149.651 107.626 152.522C117.261 159.902 127.101 180.402 127.716 194.752L128.126 206.027L114.801 210.537C77.0808 223.452 49.4055 207.052 24.1903 157.032C17.8352 144.116 16.6052 140.426 18.8602 138.991C20.2952 137.966 34.4404 137.556 50.2255 137.966C72.9808 138.581 81.1808 139.606 89.7909 143.091Z" fill="#0BA14B"/>
<path d="M223.664 127.306C193.939 132.636 173.029 150.267 164.829 177.327C162.369 185.527 156.014 262.608 155.809 288.438C155.809 292.743 156.834 293.153 165.854 293.153H175.694L176.719 266.093C177.334 251.128 178.564 237.187 179.384 235.342C181.434 230.422 185.124 229.397 207.469 227.552C220.589 226.322 230.429 224.067 237.194 220.992C257.285 211.767 281.475 181.017 296.235 145.962L303 129.561L297.67 128.331C287.625 126.076 234.939 125.256 223.664 127.306ZM282.91 139.196C289.47 143.502 258.31 193.112 241.499 204.592C230.839 211.972 219.974 215.252 206.034 215.252C196.604 215.252 189.634 216.482 176.514 220.582L171.594 222.017L172.619 204.797C175.079 166.872 191.684 145.962 224.074 139.606C235.964 137.146 279.22 136.941 282.91 139.196Z" fill="#0BA14B"/>
</svg>
