<svg width="932" height="130" viewBox="0 0 932 130" fill="none" xmlns="http://www.w3.org/2000/svg">
<path d="M68.2411 98L59.9851 76.784H32.8171L24.6571 98H15.9211L42.7051 29.168H50.4811L77.1691 98H68.2411ZM49.7131 48.368C49.5211 47.856 49.2011 46.928 48.7531 45.584C48.3051 44.24 47.8571 42.864 47.4091 41.456C47.0251 39.984 46.7051 38.864 46.4491 38.096C46.1291 39.376 45.7771 40.688 45.3931 42.032C45.0731 43.312 44.7211 44.496 44.3371 45.584C44.0171 46.672 43.7291 47.6 43.4731 48.368L35.6971 69.104H57.3931L49.7131 48.368ZM125.234 29.456V37.136H95.1856V98H86.5456V29.456H125.234ZM155.033 29.456C163.993 29.456 170.521 31.216 174.617 34.736C178.713 38.256 180.761 43.216 180.761 49.616C180.761 52.432 180.281 55.152 179.321 57.776C178.425 60.336 176.921 62.64 174.809 64.688C172.697 66.736 169.881 68.368 166.361 69.584C162.841 70.736 158.521 71.312 153.401 71.312H145.529V98H136.889V29.456H155.033ZM154.265 36.848H145.529V63.92H152.441C156.793 63.92 160.409 63.472 163.289 62.576C166.169 61.616 168.313 60.112 169.721 58.064C171.129 56.016 171.833 53.328 171.833 50C171.833 45.584 170.425 42.288 167.609 40.112C164.793 37.936 160.345 36.848 154.265 36.848ZM254.822 63.632C254.822 68.944 254.15 73.776 252.806 78.128C251.462 82.416 249.446 86.128 246.758 89.264C244.134 92.4 240.838 94.8 236.87 96.464C232.966 98.128 228.422 98.96 223.238 98.96C217.862 98.96 213.19 98.128 209.222 96.464C205.254 94.736 201.958 92.336 199.334 89.264C196.71 86.128 194.758 82.384 193.478 78.032C192.198 73.68 191.558 68.848 191.558 63.536C191.558 56.496 192.71 50.352 195.014 45.104C197.318 39.856 200.806 35.76 205.478 32.816C210.214 29.872 216.166 28.4 223.334 28.4C230.182 28.4 235.942 29.872 240.614 32.816C245.286 35.696 248.806 39.792 251.174 45.104C253.606 50.352 254.822 56.528 254.822 63.632ZM200.678 63.632C200.678 69.392 201.478 74.352 203.078 78.512C204.678 82.672 207.142 85.872 210.47 88.112C213.862 90.352 218.118 91.472 223.238 91.472C228.422 91.472 232.646 90.352 235.91 88.112C239.238 85.872 241.702 82.672 243.302 78.512C244.902 74.352 245.702 69.392 245.702 63.632C245.702 54.992 243.91 48.24 240.326 43.376C236.742 38.448 231.078 35.984 223.334 35.984C218.15 35.984 213.862 37.104 210.47 39.344C207.142 41.52 204.678 44.688 203.078 48.848C201.478 52.944 200.678 57.872 200.678 63.632ZM314.699 98H304.907L286.763 68.24L268.331 98H259.211L281.963 62.288L260.651 29.456H270.251L287.051 56.336L303.947 29.456H313.067L291.851 62.096L314.699 98ZM324.485 29.456H332.549V67.088C332.549 68.688 332.517 70.448 332.453 72.368C332.453 74.224 332.421 76.08 332.357 77.936C332.293 79.792 332.197 81.456 332.069 82.928C332.005 84.336 331.941 85.424 331.877 86.192H332.261L369.989 29.456H379.589V98H371.525V60.752C371.525 59.024 371.557 57.168 371.621 55.184C371.685 53.136 371.749 51.184 371.813 49.328C371.941 47.408 372.037 45.712 372.101 44.24C372.165 42.768 372.229 41.68 372.293 40.976H371.909L334.085 98H324.485V29.456ZM428.317 98L405.757 37.904H405.373C405.501 39.184 405.597 40.816 405.661 42.8C405.789 44.784 405.885 46.96 405.949 49.328C406.013 51.632 406.045 54 406.045 56.432V98H398.077V29.456H410.845L431.965 85.616H432.349L453.853 29.456H466.525V98H457.981V55.856C457.981 53.616 458.013 51.408 458.077 49.232C458.141 46.992 458.237 44.912 458.365 42.992C458.493 41.008 458.589 39.344 458.653 38H458.269L435.421 98H428.317ZM485.171 98V29.456H536.627V98H528.083V37.04H493.811V98H485.171ZM573.533 29.456C582.493 29.456 589.021 31.216 593.117 34.736C597.213 38.256 599.261 43.216 599.261 49.616C599.261 52.432 598.781 55.152 597.821 57.776C596.925 60.336 595.421 62.64 593.309 64.688C591.197 66.736 588.381 68.368 584.861 69.584C581.341 70.736 577.021 71.312 571.901 71.312H564.029V98H555.389V29.456H573.533ZM572.765 36.848H564.029V63.92H570.941C575.293 63.92 578.909 63.472 581.789 62.576C584.669 61.616 586.813 60.112 588.221 58.064C589.629 56.016 590.333 53.328 590.333 50C590.333 45.584 588.925 42.288 586.109 40.112C583.293 37.936 578.845 36.848 572.765 36.848ZM673.322 63.632C673.322 68.944 672.65 73.776 671.306 78.128C669.962 82.416 667.946 86.128 665.258 89.264C662.634 92.4 659.338 94.8 655.37 96.464C651.466 98.128 646.922 98.96 641.738 98.96C636.362 98.96 631.69 98.128 627.722 96.464C623.754 94.736 620.458 92.336 617.834 89.264C615.21 86.128 613.258 82.384 611.978 78.032C610.698 73.68 610.058 68.848 610.058 63.536C610.058 56.496 611.21 50.352 613.514 45.104C615.818 39.856 619.306 35.76 623.978 32.816C628.714 29.872 634.666 28.4 641.834 28.4C648.682 28.4 654.442 29.872 659.114 32.816C663.786 35.696 667.306 39.792 669.674 45.104C672.106 50.352 673.322 56.528 673.322 63.632ZM619.178 63.632C619.178 69.392 619.978 74.352 621.578 78.512C623.178 82.672 625.642 85.872 628.97 88.112C632.362 90.352 636.618 91.472 641.738 91.472C646.922 91.472 651.146 90.352 654.41 88.112C657.738 85.872 660.202 82.672 661.802 78.512C663.402 74.352 664.202 69.392 664.202 63.632C664.202 54.992 662.41 48.24 658.826 43.376C655.242 38.448 649.578 35.984 641.834 35.984C636.65 35.984 632.362 37.104 628.97 39.344C625.642 41.52 623.178 44.688 621.578 48.848C619.978 52.944 619.178 57.872 619.178 63.632ZM732.815 29.456V90.32H741.551V116.048H733.295V98H686.159V116.048H677.903V90.32H683.183C685.487 86.352 687.663 81.904 689.711 76.976C691.823 72.048 693.679 66.896 695.279 61.52C696.879 56.08 698.191 50.64 699.215 45.2C700.239 39.76 700.879 34.512 701.135 29.456H732.815ZM708.719 37.232C708.463 40.944 707.823 45.136 706.799 49.808C705.839 54.48 704.591 59.28 703.055 64.208C701.583 69.072 699.919 73.776 698.063 78.32C696.271 82.864 694.351 86.864 692.303 90.32H724.271V37.232H708.719ZM781.718 78.512C779.67 83.056 777.59 86.864 775.478 89.936C773.43 92.944 770.998 95.216 768.182 96.752C765.366 98.224 761.782 98.96 757.43 98.96C755.638 98.96 753.942 98.832 752.342 98.576C750.806 98.32 749.398 97.968 748.118 97.52V88.976C749.398 89.552 750.774 90.032 752.246 90.416C753.718 90.736 755.254 90.896 756.854 90.896C759.222 90.896 761.238 90.576 762.902 89.936C764.63 89.232 766.134 88.112 767.414 86.576C768.758 85.04 770.006 82.992 771.158 80.432L744.758 29.456H754.262L773.366 67.184C773.622 67.632 773.878 68.176 774.134 68.816C774.39 69.392 774.646 70 774.902 70.64C775.222 71.28 775.478 71.888 775.67 72.464H776.054C776.246 72.016 776.438 71.504 776.63 70.928C776.886 70.288 777.11 69.68 777.302 69.104C777.558 68.464 777.782 67.92 777.974 67.472L794.486 29.456H803.606L781.718 78.512ZM862.937 98H852.569L821.561 63.248V98H812.921V29.456H821.561V62.672L851.801 29.456H861.593L831.833 62.768L862.937 98ZM893.96 98H885.32V37.04H863.912V29.456H915.272V37.04H893.96V98Z" fill="#0BA14B"/>
<path d="M4 4.1814H928.218" stroke="#0BA14B" stroke-width="7" stroke-linecap="round"/>
<path d="M4 126H928.218" stroke="#0BA14B" stroke-width="7" stroke-linecap="round"/>
</svg>
