<svg width="932" height="231" viewBox="0 0 932 231" fill="none" xmlns="http://www.w3.org/2000/svg">
<path d="M68.2411 195.286L59.9851 174.07H32.8171L24.6571 195.286H15.9211L42.7051 126.454H50.4811L77.1691 195.286H68.2411ZM49.7131 145.654C49.5211 145.142 49.2011 144.214 48.7531 142.87C48.3051 141.526 47.8571 140.15 47.4091 138.742C47.0251 137.27 46.7051 136.15 46.4491 135.382C46.1291 136.662 45.7771 137.974 45.3931 139.318C45.0731 140.598 44.7211 141.782 44.3371 142.87C44.0171 143.958 43.7291 144.886 43.4731 145.654L35.6971 166.39H57.3931L49.7131 145.654ZM125.234 126.742V134.422H95.1856V195.286H86.5456V126.742H125.234ZM155.033 126.742C163.993 126.742 170.521 128.502 174.617 132.022C178.713 135.542 180.761 140.502 180.761 146.902C180.761 149.718 180.281 152.438 179.321 155.062C178.425 157.622 176.921 159.926 174.809 161.974C172.697 164.022 169.881 165.654 166.361 166.87C162.841 168.022 158.521 168.598 153.401 168.598H145.529V195.286H136.889V126.742H155.033ZM154.265 134.134H145.529V161.206H152.441C156.793 161.206 160.409 160.758 163.289 159.862C166.169 158.902 168.313 157.398 169.721 155.35C171.129 153.302 171.833 150.614 171.833 147.286C171.833 142.87 170.425 139.574 167.609 137.398C164.793 135.222 160.345 134.134 154.265 134.134ZM254.822 160.918C254.822 166.23 254.15 171.062 252.806 175.414C251.462 179.702 249.446 183.414 246.758 186.55C244.134 189.686 240.838 192.086 236.87 193.75C232.966 195.414 228.422 196.246 223.238 196.246C217.862 196.246 213.19 195.414 209.222 193.75C205.254 192.022 201.958 189.622 199.334 186.55C196.71 183.414 194.758 179.67 193.478 175.318C192.198 170.966 191.558 166.134 191.558 160.822C191.558 153.782 192.71 147.638 195.014 142.39C197.318 137.142 200.806 133.046 205.478 130.102C210.214 127.158 216.166 125.686 223.334 125.686C230.182 125.686 235.942 127.158 240.614 130.102C245.286 132.982 248.806 137.078 251.174 142.39C253.606 147.638 254.822 153.814 254.822 160.918ZM200.678 160.918C200.678 166.678 201.478 171.638 203.078 175.798C204.678 179.958 207.142 183.158 210.47 185.398C213.862 187.638 218.118 188.758 223.238 188.758C228.422 188.758 232.646 187.638 235.91 185.398C239.238 183.158 241.702 179.958 243.302 175.798C244.902 171.638 245.702 166.678 245.702 160.918C245.702 152.278 243.91 145.526 240.326 140.662C236.742 135.734 231.078 133.27 223.334 133.27C218.15 133.27 213.862 134.39 210.47 136.63C207.142 138.806 204.678 141.974 203.078 146.134C201.478 150.23 200.678 155.158 200.678 160.918ZM314.699 195.286H304.907L286.763 165.526L268.331 195.286H259.211L281.963 159.574L260.651 126.742H270.251L287.051 153.622L303.947 126.742H313.067L291.851 159.382L314.699 195.286ZM324.485 126.742H332.549V164.374C332.549 165.974 332.517 167.734 332.453 169.654C332.453 171.51 332.421 173.366 332.357 175.222C332.293 177.078 332.197 178.742 332.069 180.214C332.005 181.622 331.941 182.71 331.877 183.478H332.261L369.989 126.742H379.589V195.286H371.525V158.038C371.525 156.31 371.557 154.454 371.621 152.47C371.685 150.422 371.749 148.47 371.813 146.614C371.941 144.694 372.037 142.998 372.101 141.526C372.165 140.054 372.229 138.966 372.293 138.262H371.909L334.085 195.286H324.485V126.742ZM428.317 195.286L405.757 135.19H405.373C405.501 136.47 405.597 138.102 405.661 140.086C405.789 142.07 405.885 144.246 405.949 146.614C406.013 148.918 406.045 151.286 406.045 153.718V195.286H398.077V126.742H410.845L431.965 182.902H432.349L453.853 126.742H466.525V195.286H457.981V153.142C457.981 150.902 458.013 148.694 458.077 146.518C458.141 144.278 458.237 142.198 458.365 140.278C458.493 138.294 458.589 136.63 458.653 135.286H458.269L435.421 195.286H428.317ZM485.171 195.286V126.742H536.627V195.286H528.083V134.326H493.811V195.286H485.171ZM573.533 126.742C582.493 126.742 589.021 128.502 593.117 132.022C597.213 135.542 599.261 140.502 599.261 146.902C599.261 149.718 598.781 152.438 597.821 155.062C596.925 157.622 595.421 159.926 593.309 161.974C591.197 164.022 588.381 165.654 584.861 166.87C581.341 168.022 577.021 168.598 571.901 168.598H564.029V195.286H555.389V126.742H573.533ZM572.765 134.134H564.029V161.206H570.941C575.293 161.206 578.909 160.758 581.789 159.862C584.669 158.902 586.813 157.398 588.221 155.35C589.629 153.302 590.333 150.614 590.333 147.286C590.333 142.87 588.925 139.574 586.109 137.398C583.293 135.222 578.845 134.134 572.765 134.134ZM673.322 160.918C673.322 166.23 672.65 171.062 671.306 175.414C669.962 179.702 667.946 183.414 665.258 186.55C662.634 189.686 659.338 192.086 655.37 193.75C651.466 195.414 646.922 196.246 641.738 196.246C636.362 196.246 631.69 195.414 627.722 193.75C623.754 192.022 620.458 189.622 617.834 186.55C615.21 183.414 613.258 179.67 611.978 175.318C610.698 170.966 610.058 166.134 610.058 160.822C610.058 153.782 611.21 147.638 613.514 142.39C615.818 137.142 619.306 133.046 623.978 130.102C628.714 127.158 634.666 125.686 641.834 125.686C648.682 125.686 654.442 127.158 659.114 130.102C663.786 132.982 667.306 137.078 669.674 142.39C672.106 147.638 673.322 153.814 673.322 160.918ZM619.178 160.918C619.178 166.678 619.978 171.638 621.578 175.798C623.178 179.958 625.642 183.158 628.97 185.398C632.362 187.638 636.618 188.758 641.738 188.758C646.922 188.758 651.146 187.638 654.41 185.398C657.738 183.158 660.202 179.958 661.802 175.798C663.402 171.638 664.202 166.678 664.202 160.918C664.202 152.278 662.41 145.526 658.826 140.662C655.242 135.734 649.578 133.27 641.834 133.27C636.65 133.27 632.362 134.39 628.97 136.63C625.642 138.806 623.178 141.974 621.578 146.134C619.978 150.23 619.178 155.158 619.178 160.918ZM732.815 126.742V187.606H741.551V213.334H733.295V195.286H686.159V213.334H677.903V187.606H683.183C685.487 183.638 687.663 179.19 689.711 174.262C691.823 169.334 693.679 164.182 695.279 158.806C696.879 153.366 698.191 147.926 699.215 142.486C700.239 137.046 700.879 131.798 701.135 126.742H732.815ZM708.719 134.518C708.463 138.23 707.823 142.422 706.799 147.094C705.839 151.766 704.591 156.566 703.055 161.494C701.583 166.358 699.919 171.062 698.063 175.606C696.271 180.15 694.351 184.15 692.303 187.606H724.271V134.518H708.719ZM781.718 175.798C779.67 180.342 777.59 184.15 775.478 187.222C773.43 190.23 770.998 192.502 768.182 194.038C765.366 195.51 761.782 196.246 757.43 196.246C755.638 196.246 753.942 196.118 752.342 195.862C750.806 195.606 749.398 195.254 748.118 194.806V186.262C749.398 186.838 750.774 187.318 752.246 187.702C753.718 188.022 755.254 188.182 756.854 188.182C759.222 188.182 761.238 187.862 762.902 187.222C764.63 186.518 766.134 185.398 767.414 183.862C768.758 182.326 770.006 180.278 771.158 177.718L744.758 126.742H754.262L773.366 164.47C773.622 164.918 773.878 165.462 774.134 166.102C774.39 166.678 774.646 167.286 774.902 167.926C775.222 168.566 775.478 169.174 775.67 169.75H776.054C776.246 169.302 776.438 168.79 776.63 168.214C776.886 167.574 777.11 166.966 777.302 166.39C777.558 165.75 777.782 165.206 777.974 164.758L794.486 126.742H803.606L781.718 175.798ZM862.937 195.286H852.569L821.561 160.534V195.286H812.921V126.742H821.561V159.958L851.801 126.742H861.593L831.833 160.054L862.937 195.286ZM893.96 195.286H885.32V134.326H863.912V126.742H915.272V134.326H893.96V195.286Z" fill="#0BA14B"/>
<path d="M345.279 45.488C345.279 50.16 343.807 53.872 340.863 56.624C337.919 59.312 333.983 61.04 329.055 61.808V62.192C334.815 62.96 339.199 64.752 342.207 67.568C345.215 70.384 346.719 74.064 346.719 78.608C346.719 82.64 345.695 86.192 343.647 89.264C341.599 92.272 338.527 94.64 334.431 96.368C330.335 98.096 325.215 98.96 319.071 98.96C315.359 98.96 311.807 98.672 308.415 98.096C305.087 97.584 301.983 96.624 299.103 95.216V87.344C301.087 88.304 303.199 89.136 305.439 89.84C307.743 90.48 310.047 90.992 312.351 91.376C314.655 91.696 316.863 91.856 318.975 91.856C325.119 91.856 329.759 90.704 332.895 88.4C336.095 86.096 337.695 82.832 337.695 78.608C337.695 74.256 335.839 71.088 332.127 69.104C328.415 67.12 323.231 66.128 316.575 66.128H306.783V58.928H316.095C320.639 58.928 324.383 58.416 327.327 57.392C330.335 56.368 332.575 54.928 334.047 53.072C335.583 51.152 336.351 48.912 336.351 46.352C336.351 42.896 335.071 40.24 332.511 38.384C329.951 36.528 326.623 35.6 322.527 35.6C318.239 35.6 314.655 36.144 311.775 37.232C308.959 38.32 306.207 39.728 303.519 41.456L299.391 35.6C301.183 34.256 303.231 33.072 305.535 32.048C307.903 30.96 310.527 30.096 313.407 29.456C316.287 28.816 319.359 28.496 322.623 28.496C327.551 28.496 331.679 29.232 335.007 30.704C338.399 32.176 340.959 34.192 342.687 36.752C344.415 39.248 345.279 42.16 345.279 45.488ZM404.213 98L395.957 76.784H368.789L360.629 98H351.893L378.677 29.168H386.453L413.141 98H404.213ZM385.685 48.368C385.493 47.856 385.173 46.928 384.725 45.584C384.277 44.24 383.829 42.864 383.381 41.456C382.997 39.984 382.677 38.864 382.421 38.096C382.101 39.376 381.749 40.688 381.365 42.032C381.045 43.312 380.693 44.496 380.309 45.584C379.989 46.672 379.701 47.6 379.445 48.368L371.669 69.104H393.365L385.685 48.368ZM442.101 29.456C447.797 29.456 452.565 30 456.405 31.088C460.309 32.176 463.221 33.968 465.141 36.464C467.125 38.96 468.117 42.288 468.117 46.448C468.117 49.136 467.605 51.536 466.581 53.648C465.621 55.696 464.149 57.424 462.165 58.832C460.245 60.176 457.877 61.104 455.061 61.616V62.096C457.941 62.544 460.533 63.376 462.837 64.592C465.205 65.808 467.061 67.536 468.405 69.776C469.749 72.016 470.421 74.928 470.421 78.512C470.421 82.672 469.461 86.224 467.541 89.168C465.621 92.048 462.869 94.256 459.285 95.792C455.765 97.264 451.541 98 446.613 98H422.517V29.456H442.101ZM443.829 58.64C449.717 58.64 453.749 57.712 455.925 55.856C458.101 53.936 459.189 51.12 459.189 47.408C459.189 43.632 457.845 40.944 455.157 39.344C452.533 37.68 448.309 36.848 442.485 36.848H431.157V58.64H443.829ZM431.157 65.84V90.704H444.981C451.061 90.704 455.285 89.52 457.653 87.152C460.021 84.784 461.205 81.68 461.205 77.84C461.205 75.408 460.661 73.296 459.573 71.504C458.549 69.712 456.789 68.336 454.293 67.376C451.861 66.352 448.533 65.84 444.309 65.84H431.157ZM544.763 63.632C544.763 68.944 544.091 73.776 542.747 78.128C541.403 82.416 539.387 86.128 536.699 89.264C534.075 92.4 530.779 94.8 526.811 96.464C522.907 98.128 518.363 98.96 513.179 98.96C507.803 98.96 503.131 98.128 499.163 96.464C495.195 94.736 491.899 92.336 489.275 89.264C486.651 86.128 484.699 82.384 483.419 78.032C482.139 73.68 481.499 68.848 481.499 63.536C481.499 56.496 482.651 50.352 484.955 45.104C487.259 39.856 490.747 35.76 495.419 32.816C500.155 29.872 506.107 28.4 513.275 28.4C520.123 28.4 525.883 29.872 530.555 32.816C535.227 35.696 538.747 39.792 541.115 45.104C543.547 50.352 544.763 56.528 544.763 63.632ZM490.619 63.632C490.619 69.392 491.419 74.352 493.019 78.512C494.619 82.672 497.083 85.872 500.411 88.112C503.803 90.352 508.059 91.472 513.179 91.472C518.363 91.472 522.587 90.352 525.851 88.112C529.179 85.872 531.643 82.672 533.243 78.512C534.843 74.352 535.643 69.392 535.643 63.632C535.643 54.992 533.851 48.24 530.267 43.376C526.683 38.448 521.019 35.984 513.275 35.984C508.091 35.984 503.803 37.104 500.411 39.344C497.083 41.52 494.619 44.688 493.019 48.848C491.419 52.944 490.619 57.872 490.619 63.632ZM604.256 29.456V90.32H612.992V116.048H604.736V98H557.6V116.048H549.344V90.32H554.624C556.928 86.352 559.104 81.904 561.152 76.976C563.264 72.048 565.12 66.896 566.72 61.52C568.32 56.08 569.632 50.64 570.656 45.2C571.68 39.76 572.32 34.512 572.576 29.456H604.256ZM580.16 37.232C579.904 40.944 579.264 45.136 578.24 49.808C577.28 54.48 576.032 59.28 574.496 64.208C573.024 69.072 571.36 73.776 569.504 78.32C567.712 82.864 565.792 86.864 563.744 90.32H595.712V37.232H580.16Z" fill="#0BA14B"/>
<path d="M4 9.47021H928.218" stroke="#0BA14B" stroke-width="7" stroke-linecap="round"/>
<path d="M4 227H928.218" stroke="#0BA14B" stroke-width="7" stroke-linecap="round"/>
</svg>
